<svg xmlns="http://www.w3.org/2000/svg" width="1154" height="730" viewBox="0 0 1154 730">
  <g id="Group_163082" data-name="Group 163082" transform="translate(-28 -1473)">
    <circle id="Ellipse_93" data-name="Ellipse 93" cx="9" cy="9" r="9" transform="translate(133 1518)" fill="#2a3548"/>
    <circle id="Ellipse_94" data-name="Ellipse 94" cx="12" cy="12" r="12" transform="translate(28 1818)" fill="#2a3548"/>
    <circle id="Ellipse_95" data-name="Ellipse 95" cx="23" cy="23" r="23" transform="translate(146 1899)" fill="#2a3548"/>
    <circle id="Ellipse_96" data-name="Ellipse 96" cx="5" cy="5" r="5" transform="translate(198 1893)" fill="#2a3548"/>
    <circle id="Ellipse_97" data-name="Ellipse 97" cx="3" cy="3" r="3" transform="translate(263 1951)" fill="#2a3548"/>
    <circle id="Ellipse_98" data-name="Ellipse 98" cx="15" cy="15" r="15" transform="translate(231 2017)" fill="#2a3548"/>
    <circle id="Ellipse_99" data-name="Ellipse 99" cx="23" cy="23" r="23" transform="translate(751 2101)" fill="#2a3548"/>
    <circle id="Ellipse_100" data-name="Ellipse 100" cx="6" cy="6" r="6" transform="translate(749 2166)" fill="#2a3548"/>
    <circle id="Ellipse_102" data-name="Ellipse 102" cx="7.5" cy="7.5" r="7.5" transform="translate(951 2071)" fill="#2a3548"/>
    <circle id="Ellipse_103" data-name="Ellipse 103" cx="9.5" cy="9.5" r="9.5" transform="translate(1136 1900)" fill="#2a3548" opacity="0.286"/>
    <circle id="Ellipse_104" data-name="Ellipse 104" cx="7.5" cy="7.5" r="7.5" transform="translate(1167 1473)" fill="#2a3548"/>
    <circle id="Ellipse_101" data-name="Ellipse 101" cx="2.5" cy="2.5" r="2.5" transform="translate(716 2198)" fill="#2a3548"/>
  </g>
</svg>
