<svg xmlns="http://www.w3.org/2000/svg" width="955" height="604" viewBox="0 0 955 604">
  <g id="Group_163083" data-name="Group 163083" transform="translate(-28.226 -1473.297)">
    <circle id="Ellipse_93" data-name="Ellipse 93" cx="7.5" cy="7.5" r="7.5" transform="translate(115.226 1511.297)" fill="#f7aa28"/>
    <circle id="Ellipse_94" data-name="Ellipse 94" cx="10" cy="10" r="10" transform="translate(28.226 1758.297)" fill="#f7aa28"/>
    <circle id="Ellipse_95" data-name="Ellipse 95" cx="19" cy="19" r="19" transform="translate(126.226 1826.297)" fill="#f7aa28"/>
    <circle id="Ellipse_96" data-name="Ellipse 96" cx="4" cy="4" r="4" transform="translate(169.226 1820.297)" fill="#f7aa28"/>
    <circle id="Ellipse_97" data-name="Ellipse 97" cx="3" cy="3" r="3" transform="translate(222.226 1869.297)" fill="#f7aa28"/>
    <ellipse id="Ellipse_98" data-name="Ellipse 98" cx="12" cy="13" rx="12" ry="13" transform="translate(196.226 1923.297)" fill="#f7aa28"/>
    <circle id="Ellipse_99" data-name="Ellipse 99" cx="19" cy="19" r="19" transform="translate(627.225 1993.297)" fill="#f7aa28"/>
    <circle id="Ellipse_100" data-name="Ellipse 100" cx="5" cy="5" r="5" transform="translate(625.225 2046.297)" fill="#f7aa28"/>
    <circle id="Ellipse_102" data-name="Ellipse 102" cx="6" cy="6" r="6" transform="translate(793.225 1968.297)" fill="#f7aa28"/>
    <circle id="Ellipse_103" data-name="Ellipse 103" cx="8" cy="8" r="8" transform="translate(945.226 1826.297)" fill="#f7aa28"/>
    <circle id="Ellipse_104" data-name="Ellipse 104" cx="6.5" cy="6.5" r="6.5" transform="translate(970.226 1473.297)" fill="#f7aa28"/>
    <ellipse id="Ellipse_101" data-name="Ellipse 101" cx="1.5" cy="2.5" rx="1.5" ry="2.5" transform="translate(598.225 2072.297)" fill="#f7aa28"/>
  </g>
</svg>
